<svg xmlns="http://www.w3.org/2000/svg" xmlns:xlink="http://www.w3.org/1999/xlink" x="0px" y="0px" viewBox="0 0 2550 3300">
<path fill="#EE3E37" opacity="1.000000" stroke="none" 
	d="
M126.002792,2808.356445 
	C114.398567,2808.356689 103.793816,2808.356689 92.572105,2808.356689 
	C92.572105,2102.399414 92.572105,1397.252319 92.572105,691.003784 
	C342.747559,691.003784 592.893311,691.003784 844.375427,691.003784 
	C843.348572,684.688110 842.670593,679.580200 841.669067,674.536499 
	C838.881165,660.496460 835.974792,646.479736 833.086853,632.459656 
	C822.617920,581.636658 859.469055,536.169617 911.603455,536.125610 
	C1044.931274,536.013062 1178.259277,536.122009 1311.587280,536.142090 
	C1323.253418,536.143860 1334.919800,536.170105 1346.585693,536.125854 
	C1349.528809,536.114685 1352.471069,535.875610 1356.318359,535.700012 
	C1353.837646,523.370117 1351.486328,511.703613 1349.144287,500.035217 
	C1347.310303,490.898224 1345.171021,481.809143 1343.713745,472.612213 
	C1336.162109,424.957825 1371.731323,382.484009 1420.056885,381.715485 
	C1445.716064,381.307404 1471.386963,381.622009 1497.052490,381.645477 
	C1499.016235,381.647278 1500.979736,381.928833 1504.098755,382.169495 
	C1464.992310,502.602142 1426.071655,622.462463 1386.827393,743.319336 
	C1383.351562,743.319336 1380.101440,743.321533 1376.851196,743.319031 
	C1249.189697,743.220947 1121.528198,743.102539 993.866760,743.048767 
	C977.546021,743.041931 961.144531,742.392700 944.919678,743.730469 
	C897.906982,747.606628 865.501831,791.803772 874.921082,838.217041 
	C878.363770,855.181030 881.896057,872.126892 885.320312,889.094543 
	C885.840637,891.673096 885.994629,894.325623 886.461243,898.102295 
	C690.803894,898.102295 495.675812,898.102295 299.993469,898.102295 
	C299.993469,1466.051514 299.993469,2032.890381 299.993469,2599.691895 
	C306.923676,2601.789062 2240.828369,2602.601807 2256.281982,2600.551514 
	C2258.207520,2593.537842 2258.845215,912.691406 2256.795654,898.486084 
	C2172.419922,898.486084 2087.903809,898.486084 2001.590454,898.486084 
	C2024.245361,828.670532 2046.462524,760.204041 2068.813477,691.324829 
	C2200.749756,691.324829 2332.254150,691.324829 2464.507812,691.324829 
	C2464.507812,1396.755127 2464.507812,2101.851318 2464.507812,2808.356445 
	C1685.282715,2808.356445 906.142517,2808.356445 126.002792,2808.356445 
z"/>
<path fill="#333366" opacity="1.000000" stroke="none" 
	d="
M1212.457520,1676.474609 
	C1291.144653,1434.209351 1369.594604,1192.709351 1448.027344,951.203979 
	C1508.779907,764.138855 1569.510498,577.066589 1630.259399,390.000305 
	C1631.071899,387.498260 1631.999756,385.033783 1633.018555,382.140991 
	C1764.370239,382.140991 1895.582275,382.140991 2026.797852,382.140991 
	C2026.420776,390.285828 1386.859741,2363.240479 1374.777954,2393.470215 
	C1272.739868,2393.470215 1170.511230,2393.470215 1067.131348,2393.470215 
	C995.657532,2173.362305 924.090759,1952.968140 852.054504,1731.128174 
	C967.403503,1731.128174 1080.921143,1731.128174 1194.760132,1731.128174 
	C1200.751709,1712.627075 1206.482300,1694.932251 1212.457520,1676.474609 
z"/>
<path fill="#333366" opacity="1.000000" stroke="none" 
	d="
M848.000000,1053.895264 
	C871.636963,1053.896362 894.273987,1053.896362 917.787109,1053.896362 
	C917.574280,1050.913208 917.645203,1048.404175 917.184204,1045.997192 
	C913.303101,1025.732788 908.328918,1005.620789 905.588318,985.207214 
	C900.323425,945.992188 929.034546,907.504761 968.081909,900.101318 
	C974.262329,898.929565 980.641357,898.283752 986.929321,898.277710 
	C1100.261597,898.168213 1213.593994,898.194519 1326.926392,898.191895 
	C1329.572876,898.191833 1332.219360,898.191895 1336.440674,898.191895 
	C1313.816528,967.901550 1291.490845,1036.691162 1268.953247,1106.133911 
	C1264.942017,1106.133911 1261.329712,1106.135620 1257.717529,1106.133667 
	C1181.051514,1106.092651 1104.384888,1105.840942 1027.719971,1106.108032 
	C994.776917,1106.222778 970.450439,1121.563354 955.217407,1150.759155 
	C946.714783,1167.055664 945.484009,1184.503052 949.008057,1202.338623 
	C952.363281,1219.319946 955.969482,1236.251343 959.387939,1253.220459 
	C959.902771,1255.776001 959.995422,1258.416504 960.335205,1261.486328 
	C873.270508,1261.486328 786.718933,1261.486328 699.341431,1261.486328 
	C676.923462,1192.452637 654.565857,1123.605103 631.927917,1053.894165 
	C704.409302,1053.894165 775.704651,1053.894165 848.000000,1053.895264 
z"/>
<path fill="#EE3E37" opacity="1.000000" stroke="none" 
	d="
M902.000000,1602.123047 
	C871.030212,1602.123047 841.060364,1602.123047 810.030762,1602.123047 
	C790.214539,1541.093384 770.443420,1480.202515 750.274902,1418.087891 
	C831.781250,1418.087891 911.606934,1418.087891 992.582581,1418.087891 
	C990.651123,1408.076050 988.895447,1399.043213 987.167908,1390.005005 
	C984.607666,1376.609741 981.290283,1363.304443 979.659912,1349.796143 
	C974.093323,1303.674805 1010.259521,1262.702026 1057.072510,1262.129883 
	C1093.387451,1261.686035 1129.712036,1262.018677 1166.032349,1262.009644 
	C1182.998047,1262.005371 1199.963745,1262.009033 1218.258911,1262.009033 
	C1181.064087,1375.806152 1144.196777,1488.601074 1107.091919,1602.122925 
	C1038.836914,1602.122925 970.918457,1602.122925 902.000000,1602.123047 
z"/>
</svg>